<?xml version="1.0" standalone="no"?>
<svg xmlns="http://www.w3.org/2000/svg" viewBox="0 0 195.792 29.001" width="195.792" height="29.001"><g fill="#1C61C9" color="#1C61C9" transform="translate(0, 0) scale(0.4142858)"><svg width="70.0" height="70.0" x="0.0" y="0.0" viewBox="0 0 70 70"><path d="M67.7099609,27.1099854l-9.5300293-9.5200195C58,17.3999634,57.7399902,17.2999878,57.4799805,17.2999878H10.0888672  v-3.460144c0-0.5522461-0.4472656-1-1-1H3c-0.5527344,0-1,0.4477539-1,1s0.4472656,1,1,1h5.0888672v5.1040039H6.3154297  c-0.5527344,0-1,0.4477539-1,1s0.4472656,1,1,1h1.7734375v2.09375H6.3154297c-0.5527344,0-1,0.4477539-1,1s0.4472656,1,1,1  h1.7734375v2.09375H6.3154297c-0.5527344,0-1,0.4477539-1,1s0.4472656,1,1,1h1.7734375v6.1875H6.3154297  c-0.5527344,0-1,0.4477539-1,1s0.4472656,1,1,1h1.7734375v2.09375H6.3154297c-0.5527344,0-1,0.4477539-1,1s0.4472656,1,1,1  h1.7734375v13.7475586c0,0.5522461,0.4472656,1,1,1s1-0.4477539,1-1v-4.5101929h4.5419922v4.2318726c0,0.5522461,0.4472656,1,1,1  H46.671875c0.5527344,0,1-0.4477539,1-1v-4.2318726H67c0.5500488,0,1-0.4499512,1-1V27.8200073  C68,27.5599976,67.8900146,27.2999878,67.7099609,27.1099854z M45.671875,54.8818359h-1.4101563v-1.0185547  c0-0.5522461-0.4472656-1-1-1s-1,0.4477539-1,1v1.0185547h-2.84375v-1.0185547c0-0.5522461-0.4472656-1-1-1s-1,0.4477539-1,1  v1.0185547h-2.84375v-1.0185547c0-0.5522461-0.4472656-1-1-1s-1,0.4477539-1,1v1.0185547h-2.8447266v-1.0185547  c0-0.5522461-0.4472656-1-1-1s-1,0.4477539-1,1v1.0185547h-2.84375v-1.0185547c0-0.5522461-0.4472656-1-1-1s-1,0.4477539-1,1  v1.0185547h-2.84375v-1.0185547c0-0.5522461-0.4472656-1-1-1s-1,0.4477539-1,1v1.0185547h-1.4111328v-3.2294922H45.671875  V54.8818359z M27.7294922,23.734375c0-0.5522461,0.4472656-1,1-1s1,0.4477539,1,1v1.2392578c0,0.5522461-0.4472656,1-1,1  s-1-0.4477539-1-1V23.734375z M27.7294922,28.7949219c0-0.5522461,0.4472656-1,1-1s1,0.4477539,1,1v1.2392578  c0,0.5522461-0.4472656,1-1,1s-1-0.4477539-1-1V28.7949219z M27.7294922,33.8554688c0-0.5522461,0.4472656-1,1-1s1,0.4477539,1,1  v1.2397461c0,0.5522461-0.4472656,1-1,1s-1-0.4477539-1-1V33.8554688z M27.7294922,38.9160156c0-0.5522461,0.4472656-1,1-1  s1,0.4477539,1,1v1.2397461c0,0.5522461-0.4472656,1-1,1s-1-0.4477539-1-1V38.9160156z M27.7294922,43.9765625  c0-0.5522461,0.4472656-1,1-1s1,0.4477539,1,1v1.2397461c0,0.5522461-0.4472656,1-1,1s-1-0.4477539-1-1V43.9765625z   M22.5634766,33.8554688c0-0.5522461,0.4472656-1,1-1s1,0.4477539,1,1v1.2397461c0,0.5522461-0.4472656,1-1,1s-1-0.4477539-1-1  V33.8554688z M22.5634766,38.9160156c0-0.5522461,0.4472656-1,1-1s1,0.4477539,1,1v1.2397461c0,0.5522461-0.4472656,1-1,1  s-1-0.4477539-1-1V38.9160156z M22.5634766,43.9765625c0-0.5522461,0.4472656-1,1-1s1,0.4477539,1,1v1.2397461  c0,0.5522461-0.4472656,1-1,1s-1-0.4477539-1-1V43.9765625z M17.3964844,33.8554688c0-0.5522461,0.4472656-1,1-1s1,0.4477539,1,1  v1.2397461c0,0.5522461-0.4472656,1-1,1s-1-0.4477539-1-1V33.8554688z M17.3964844,38.9160156c0-0.5522461,0.4472656-1,1-1  s1,0.4477539,1,1v1.2397461c0,0.5522461-0.4472656,1-1,1s-1-0.4477539-1-1V38.9160156z M17.3964844,43.9765625  c0-0.5522461,0.4472656-1,1-1s1,0.4477539,1,1v1.2397461c0,0.5522461-0.4472656,1-1,1s-1-0.4477539-1-1V43.9765625z   M14.2294922,45.2163086c0,0.5522461-0.4472656,1-1,1s-1-0.4477539-1-1v-1.2397461c0-0.5522461,0.4472656-1,1-1s1,0.4477539,1,1  V45.2163086z M14.2294922,40.1557617c0,0.5522461-0.4472656,1-1,1s-1-0.4477539-1-1v-1.2397461c0-0.5522461,0.4472656-1,1-1  s1,0.4477539,1,1V40.1557617z M14.2294922,35.0952148c0,0.5522461-0.4472656,1-1,1s-1-0.4477539-1-1v-1.2397461  c0-0.5522461,0.4472656-1,1-1s1,0.4477539,1,1V35.0952148z M59.8200684,39.0700073c-1.4899902,0-2.75-0.9900513-3.1700439-2.3500366  h-1.6099854L54,40.9599609c-0.1099854,0.4500122-0.5100098,0.7600098-0.9799805,0.7600098h-3.0600586  c-0.4199219,1.3599854-1.6799316,2.3500366-3.1799316,2.3500366c-1.8400879,0-3.3400879-1.5-3.3400879-3.3500366  c0-1.8399658,1.5-3.3399658,3.3400879-3.3399658c1.5,0,2.7600098,0.9899902,3.1799316,2.3399658h2.2800293l0.7399902-3H39.1999512  v1.8900146c0,0.3599854-0.1899414,0.6799927-0.5,0.8599854c-0.1499023,0.1000366-0.3299561,0.1400146-0.5,0.1400146  c-0.1699219,0-0.3399658-0.039978-0.4899902-0.1199951l-5.2199707-2.8900146  c-0.3200684-0.1799927-0.5200195-0.5200195-0.5200195-0.8800049s0.1999512-0.7000122,0.5200195-0.8699951l5.2199707-2.8999634  c0.3100586-0.1700439,0.6900635-0.1600342,0.9899902,0.0199585c0.3100586,0.1799927,0.5,0.5100098,0.5,0.8599854v1.8900146  h11.2700195l-0.7399902-3h-3.1199951v0.9000244c0,0.5499878-0.4500732,1-1,1h-3.2299805c-0.5499268,0-1-0.4500122-1-1v-3.7999878  c0-0.5500488,0.4500732-1,1-1h3.2299805c0.5499268,0,1,0.4499512,1,1v0.8999634h3.9100342  c0.4599609,0,0.8599854,0.3099976,0.9699707,0.7600098l1.0400391,4.2399902h4.1199951  c0.4200439-1.3599854,1.6800537-2.3499756,3.1700439-2.3499756c1.8498535,0,3.3498535,1.5,3.3498535,3.3499756  C63.1699219,37.5700073,61.6699219,39.0700073,59.8200684,39.0700073z"></path></svg></g><line x1="41" y1="1" x2="41" y2="28.001" stroke="#1C61C9" stroke-linecap="round"></line><path fill="#1C61C9" fill-rule="nonzero" d="M3.53 17.86L0 18.14L0 0.29L3.53 0L3.53 7.30L6.89 7.30L6.89 0.29L10.42 0L10.42 17.86L6.89 18.14L6.89 10.51L3.53 10.51L3.53 17.86ZM15.77 18.31Q14.90 18.31 14.21 17.77Q13.51 17.23 13.13 16.31Q12.74 15.38 12.74 14.23L12.74 14.23Q12.74 11.62 14.53 10.55Q16.32 9.48 18.70 9.34L18.70 9.34Q18.70 8.04 18.53 7.42Q18.36 6.79 17.71 6.79L17.71 6.79Q17.16 6.79 16.87 7.22Q16.58 7.66 16.51 8.33L16.51 8.33L13.22 7.75Q13.46 5.90 14.74 5.11Q16.01 4.32 17.71 4.32L17.71 4.32Q19.90 4.32 20.99 5.47Q22.08 6.62 22.08 8.47L22.08 8.47L22.08 15.46Q22.08 16.58 22.44 17.86L22.44 17.86L19.15 18.14L18.77 16.49Q18.34 17.26 17.50 17.78Q16.66 18.31 15.77 18.31L15.77 18.31ZM17.33 15.91Q17.74 15.91 18.01 15.72Q18.29 15.53 18.70 15.10L18.70 15.10L18.70 11.35Q17.50 11.35 16.78 12Q16.06 12.65 16.06 14.02L16.06 14.02Q16.06 14.93 16.38 15.42Q16.70 15.91 17.33 15.91L17.33 15.91ZM24.86 18.14L24.86 4.78L28.22 4.49L28.22 6.67Q28.94 5.64 30.01 5.00Q31.08 4.37 32.74 4.37L32.74 4.37L32.74 7.66Q31.87 7.66 30.47 7.96Q29.06 8.26 28.22 9L28.22 9L28.22 17.86L24.86 18.14ZM37.85 18.31Q33.96 18.31 33.96 11.26L33.96 11.26Q33.96 7.58 34.92 5.95Q35.88 4.32 37.92 4.32L37.92 4.32Q38.78 4.32 39.58 4.88Q40.37 5.45 40.73 6.29L40.73 6.29L40.73 0.43L44.11 0L44.11 17.86L41.57 18.14L40.73 16.32Q40.49 17.21 39.84 17.76Q39.19 18.31 37.85 18.31L37.85 18.31ZM39.10 15.91Q39.82 15.91 40.27 15.11Q40.73 14.30 40.73 12.38L40.73 12.38L40.73 7.87Q40.03 6.79 39.10 6.79L39.10 6.79Q38.30 6.79 37.93 7.36Q37.56 7.92 37.45 8.83Q37.34 9.74 37.34 11.26L37.34 11.26Q37.34 12.79 37.45 13.75Q37.56 14.71 37.94 15.31Q38.33 15.91 39.10 15.91L39.10 15.91ZM51.48 18L48.72 18L45.96 4.75L49.39 4.49L50.54 12.14L52.25 4.78L55.06 4.49L56.52 12.05L57.98 4.78L60.72 4.63L57.62 18L54.91 18L53.38 9.24L51.48 18ZM64.61 18.31Q63.74 18.31 63.05 17.77Q62.35 17.23 61.97 16.31Q61.58 15.38 61.58 14.23L61.58 14.23Q61.58 11.62 63.37 10.55Q65.16 9.48 67.54 9.34L67.54 9.34Q67.54 8.04 67.37 7.42Q67.20 6.79 66.55 6.79L66.55 6.79Q66 6.79 65.71 7.22Q65.42 7.66 65.35 8.33L65.35 8.33L62.06 7.75Q62.30 5.90 63.58 5.11Q64.85 4.32 66.55 4.32L66.55 4.32Q68.74 4.32 69.83 5.47Q70.92 6.62 70.92 8.47L70.92 8.47L70.92 15.46Q70.92 16.58 71.28 17.86L71.28 17.86L67.99 18.14L67.61 16.49Q67.18 17.26 66.34 17.78Q65.50 18.31 64.61 18.31L64.61 18.31ZM66.17 15.91Q66.58 15.91 66.85 15.72Q67.13 15.53 67.54 15.10L67.54 15.10L67.54 11.35Q66.34 11.35 65.62 12Q64.90 12.65 64.90 14.02L64.90 14.02Q64.90 14.93 65.22 15.42Q65.54 15.91 66.17 15.91L66.17 15.91ZM73.70 18.14L73.70 4.78L77.06 4.49L77.06 6.67Q77.78 5.64 78.85 5.00Q79.92 4.37 81.58 4.37L81.58 4.37L81.58 7.66Q80.71 7.66 79.31 7.96Q77.90 8.26 77.06 9L77.06 9L77.06 17.86L73.70 18.14ZM87.70 18.31Q85.30 18.31 84.02 16.40Q82.75 14.50 82.75 11.33L82.75 11.33Q82.75 8.11 84.05 6.22Q85.34 4.32 87.82 4.32L87.82 4.32Q90.17 4.32 91.42 6.22Q92.66 8.11 92.66 11.33L92.66 11.33Q92.66 11.52 92.59 11.60Q92.52 11.69 92.52 11.71L92.52 11.71L86.11 11.71Q86.11 13.27 86.52 14.56Q86.93 15.84 87.77 15.84L87.77 15.84Q88.70 15.84 89.16 14.76Q89.62 13.68 89.64 13.63L89.64 13.63L92.18 14.59Q91.68 16.32 90.58 17.32Q89.47 18.31 87.70 18.31L87.70 18.31ZM86.11 9.77L89.35 9.77Q89.35 8.33 88.97 7.49Q88.58 6.65 87.77 6.65L87.77 6.65Q87.36 6.65 86.98 7.06Q86.59 7.46 86.35 8.18Q86.11 8.90 86.11 9.77L86.11 9.77ZM101.33 12.38L94.58 12.38L94.58 9.58L101.33 9.58L101.33 12.38ZM106.34 18.31Q105.48 18.31 104.78 17.77Q104.09 17.23 103.70 16.31Q103.32 15.38 103.32 14.23L103.32 14.23Q103.32 11.62 105.11 10.55Q106.90 9.48 109.27 9.34L109.27 9.34Q109.27 8.04 109.10 7.42Q108.94 6.79 108.29 6.79L108.29 6.79Q107.74 6.79 107.45 7.22Q107.16 7.66 107.09 8.33L107.09 8.33L103.80 7.75Q104.04 5.90 105.31 5.11Q106.58 4.32 108.29 4.32L108.29 4.32Q110.47 4.32 111.56 5.47Q112.66 6.62 112.66 8.47L112.66 8.47L112.66 15.46Q112.66 16.58 113.02 17.86L113.02 17.86L109.73 18.14L109.34 16.49Q108.91 17.26 108.07 17.78Q107.23 18.31 106.34 18.31L106.34 18.31ZM107.90 15.91Q108.31 15.91 108.59 15.72Q108.86 15.53 109.27 15.10L109.27 15.10L109.27 11.35Q108.07 11.35 107.35 12Q106.63 12.65 106.63 14.02L106.63 14.02Q106.63 14.93 106.96 15.42Q107.28 15.91 107.90 15.91L107.90 15.91ZM119.62 18.31Q118.08 18.31 116.99 17.35Q115.90 16.39 115.34 14.81Q114.79 13.22 114.79 11.38L114.79 11.38Q114.79 9.55 115.33 7.94Q115.87 6.34 116.98 5.33Q118.08 4.32 119.69 4.32L119.69 4.32Q120.91 4.32 121.88 4.93Q122.86 5.54 123.41 6.65Q123.96 7.75 124.01 9.17L124.01 9.17L120.82 9.31Q120.82 9.22 120.73 8.54Q120.65 7.87 120.37 7.44Q120.10 7.01 119.66 7.01L119.66 7.01Q118.70 7.01 118.44 8.32Q118.18 9.62 118.18 11.26L118.18 11.26Q118.18 12.86 118.45 14.17Q118.73 15.48 119.76 15.48L119.76 15.48Q121.06 15.48 121.10 12.94L121.10 12.94L123.94 13.25Q123.62 15.74 122.69 17.03Q121.75 18.31 119.62 18.31L119.62 18.31ZM130.73 18.26Q129.10 18.26 127.97 17.44Q126.84 16.61 126.84 14.50L126.84 14.50L126.84 7.03L124.97 7.03L125.11 4.49L126.94 4.49L127.27 1.56L130.20 1.15L130.20 4.49L132.98 4.49L132.84 7.03L130.22 7.03L130.22 14.47Q130.22 15.19 130.58 15.50Q130.94 15.82 131.64 15.82L131.64 15.82Q132.02 15.82 132.94 15.67L132.94 15.67L132.94 18Q132.84 18.02 132.18 18.14Q131.52 18.26 130.73 18.26L130.73 18.26ZM137.66 18.31Q136.34 18.31 135.50 17.39Q134.66 16.46 134.66 14.90L134.66 14.90L134.66 4.78L138.02 4.49L138.02 13.54Q138.02 14.50 138.34 14.92Q138.65 15.34 139.30 15.34L139.30 15.34Q139.80 15.34 140.38 15.08Q140.95 14.83 141.41 14.28L141.41 14.28L141.41 4.78L144.79 4.49L144.79 17.86L141.41 18.14L141.41 16.42Q140.57 17.38 139.57 17.84Q138.58 18.31 137.66 18.31L137.66 18.31Z" transform="translate(51, 5.345)"></path></svg>